<?xml version="1.0" encoding="utf-8"?>
<!-- Generator: Adobe Illustrator 18.0.0, SVG Export Plug-In . SVG Version: 6.00 Build 0)  -->
<!DOCTYPE svg PUBLIC "-//W3C//DTD SVG 1.1//EN" "http://www.w3.org/Graphics/SVG/1.1/DTD/svg11.dtd">
<svg version="1.1" id="Layer_1" xmlns="http://www.w3.org/2000/svg" xmlns:xlink="http://www.w3.org/1999/xlink" x="0px" y="0px"
	 viewBox="152.8 366.2 484.2 486.2" enable-background="new 152.8 366.2 484.2 486.2" xml:space="preserve">
<g>
	<path fill="#FFFFFF" d="M445.1,614.6c0-26.3-21.4-47.7-47.7-47.7c-26.3,0-47.7,21.4-47.7,47.7c0,26.3,21.4,47.7,47.7,47.7
		C423.7,662.3,445.1,640.9,445.1,614.6"/>
	<path fill="#FFFFFF" d="M496.5,439.8c0-7.4,6-13.4,13.4-13.4h41.6c7.4,0,13.5,6,13.5,13.4v41.6c0,7.4-6.1,13.4-13.5,13.4H510
		c-7.4,0-13.4-6-13.4-13.4V439.8z M397.4,499.6c24.8,0,47.7,7.9,66.5,21.3H637v-33.7c0-66.8-54.3-121-121-121H273.8
		c-66.7,0-121,54.3-121,121v33.7h178C349.6,507.6,372.6,499.6,397.4,499.6"/>
	<path fill="#FFFFFF" d="M512.3,614.6c0,63.4-51.6,114.9-114.9,114.9c-63.4,0-115-51.5-115-114.9c0-17.4,4-34,10.9-48.8H152.8v165.7
		c0,66.7,54.3,121,121,121H516c66.7,0,121-54.3,121-121V565.8H501.4C508.4,580.6,512.3,597.2,512.3,614.6"/>
</g>
</svg>
